<svg width="20" height="19" viewBox="0 0 20 19" fill="none" xmlns="http://www.w3.org/2000/svg">
<path d="M18.0003 10.8334H11.3337V17.5C11.3337 18.2334 10.7337 18.8334 10.0003 18.8334C9.26699 18.8334 8.66699 18.2334 8.66699 17.5V10.8334H2.00033C1.26699 10.8334 0.666992 10.2334 0.666992 9.50004C0.666992 8.7667 1.26699 8.1667 2.00033 8.1667H8.66699V1.50004C8.66699 0.766702 9.26699 0.166702 10.0003 0.166702C10.7337 0.166702 11.3337 0.766702 11.3337 1.50004V8.1667H18.0003C18.7337 8.1667 19.3337 8.7667 19.3337 9.50004C19.3337 10.2334 18.7337 10.8334 18.0003 10.8334Z" fill="black"/>
</svg>
