<svg width="32" height="33" viewBox="0 0 32 33" fill="none" xmlns="http://www.w3.org/2000/svg">
<path d="M24.0003 17.8334H17.3337V24.5C17.3337 25.2334 16.7337 25.8334 16.0003 25.8334C15.267 25.8334 14.667 25.2334 14.667 24.5V17.8334H8.00033C7.26699 17.8334 6.66699 17.2334 6.66699 16.5C6.66699 15.7667 7.26699 15.1667 8.00033 15.1667H14.667V8.50004C14.667 7.7667 15.267 7.1667 16.0003 7.1667C16.7337 7.1667 17.3337 7.7667 17.3337 8.50004V15.1667H24.0003C24.7337 15.1667 25.3337 15.7667 25.3337 16.5C25.3337 17.2334 24.7337 17.8334 24.0003 17.8334Z" fill="black"/>
</svg>
